<svg width="80" height="80" viewBox="0 0 80 80" fill="none" xmlns="http://www.w3.org/2000/svg">
<path d="M55.6272 69.884C55.9438 69.5216 56.4571 69.5216 56.7737 69.884L64.2249 78.4162C64.5412 78.7787 64.5413 79.3663 64.2249 79.7287C63.9083 80.0912 63.3949 80.0912 63.0784 79.7287L55.6272 71.1965C55.3107 70.834 55.3107 70.2465 55.6272 69.884ZM33.3303 3.55589C51.0286 3.55589 65.3762 20.3137 65.3762 40.9856C65.3761 61.6573 51.0285 78.4153 33.3303 78.4153C33.1245 78.4153 32.919 78.411 32.7141 78.4065V3.56468C32.919 3.56017 33.1245 3.5559 33.3303 3.55589ZM61.968 60.7502C62.1918 60.3064 62.7096 60.1687 63.1243 60.4426L72.1526 66.4114C72.5672 66.6856 72.722 67.2673 72.4983 67.7112C72.2745 68.1551 71.7568 68.2929 71.342 68.0188L62.3137 62.05C61.8994 61.7758 61.7445 61.194 61.968 60.7502ZM67.4338 51.5608C67.5498 51.0658 68.0386 50.7857 68.5247 50.9348L78.5081 53.9983C78.9941 54.1474 79.2946 54.6692 79.179 55.1643C79.0631 55.6594 78.5743 55.9404 78.0881 55.7912L68.1047 52.7278C67.6186 52.5786 67.318 52.0559 67.4338 51.5608ZM79.0149 40.9856C79.5588 40.9856 80 41.4262 80.0002 41.97C80.0002 42.514 79.5589 42.9553 79.0149 42.9553H68.9417C68.3978 42.9551 67.9573 42.5138 67.9573 41.97C67.9575 41.4263 68.3979 40.9858 68.9417 40.9856H79.0149ZM78.0881 25.8743C78.5743 25.7251 79.0631 26.0061 79.179 26.5012C79.2945 26.9962 78.994 27.5181 78.5081 27.6672L68.5237 30.7307C68.0377 30.8796 67.5497 30.5987 67.4338 30.1037C67.3183 29.6087 67.6187 29.0868 68.1047 28.9377L78.0881 25.8743ZM72.1526 12.178C72.5673 11.9039 73.085 12.0418 73.3088 12.4856C73.5327 12.9295 73.3779 13.5122 72.9631 13.7864L63.9348 19.7541C63.5201 20.0281 63.0033 19.8904 62.7795 19.4465C62.5558 19.0027 62.7098 18.421 63.1243 18.1467L72.1526 12.178ZM63.0784 0.271712C63.3949 -0.0905707 63.9083 -0.0905709 64.2249 0.271712C64.5413 0.634089 64.5412 1.22172 64.2249 1.58421L56.7737 10.1164C56.4571 10.4789 55.9438 10.4789 55.6272 10.1164C55.3108 9.75396 55.3107 9.16636 55.6272 8.80394L63.0784 0.271712Z" fill="#272727"/>
<path d="M32.6621 3.56421V3.56616C21.7083 4.01528 12.9033 20.5956 12.9033 40.9851C12.9033 61.3746 21.7083 77.9549 32.6621 78.4041V78.406C32.4572 78.4105 32.2518 78.4148 32.0459 78.4148C14.3476 78.4148 0 61.657 0 40.9851C5.29522e-06 20.3133 14.3476 3.55542 32.0459 3.55542C32.2518 3.55542 32.4572 3.55969 32.6621 3.56421Z" fill="#EFEFEF" fill-opacity="0.466667"/>
</svg>
