<svg width="60" height="60" viewBox="0 0 60 60" fill="none" xmlns="http://www.w3.org/2000/svg">
<path d="M30 0C31.3525 3.02795e-05 32.4492 1.0967 32.4492 2.44922V27.5508H57.5508C58.9033 27.5508 60 28.6475 60 30C60 31.3525 58.9033 32.4492 57.5508 32.4492H32.4492V57.5508C32.4492 58.9033 31.3525 60 30 60C28.6475 60 27.5508 58.9033 27.5508 57.5508V32.4492H2.44922C1.09668 32.4492 0 31.3525 0 30C3.02795e-05 28.6475 1.0967 27.5508 2.44922 27.5508H27.5508V2.44922C27.5508 1.09668 28.6475 0 30 0Z" fill="#272727"/>
</svg>
