<svg width="60" height="60" viewBox="0 0 60 60" fill="none" xmlns="http://www.w3.org/2000/svg">
<rect x="1.5" y="1.5" width="57" height="57" rx="10.5" stroke="#272727" stroke-width="3"/>
<path d="M29.8 10C30.341 10.0001 30.7795 10.4386 30.7795 10.9795V21.0205H40.8206C41.3615 21.0206 41.8 21.4591 41.8 22C41.8 22.541 41.3615 22.9794 40.8206 22.9795H30.7795V33.0205C30.7795 33.5614 30.341 33.9999 29.8 34C29.2591 34 28.8206 33.5615 28.8206 33.0205V22.9795H18.7795C18.2386 22.9794 17.8 22.541 17.8 22C17.8001 21.4591 18.2386 21.0206 18.7795 21.0205H28.8206V10.9795C28.8206 10.4385 29.2591 10 29.8 10Z" fill="#272727"/>
<path d="M45.845 42C47.9185 42.0001 49.5999 43.6813 49.5999 45.7549L49.595 45.9482C49.4975 47.868 47.9581 49.4076 46.0383 49.5049L45.845 49.5098H13.5549L13.3616 49.5049C11.4418 49.4076 9.9024 47.868 9.80493 45.9482L9.80005 45.7549C9.80005 43.746 11.3777 42.1054 13.3616 42.0049L13.5549 42H45.845ZM13.5549 43C12.0335 43 10.8 44.2335 10.8 45.7549C10.8001 47.2762 12.0336 48.5098 13.5549 48.5098H45.845C47.3662 48.5096 48.5998 47.2761 48.5999 45.7549C48.5999 44.2336 47.3662 43.0001 45.845 43H13.5549ZM45.3635 44.5029C46.0547 44.503 46.6145 45.0637 46.6145 45.7549C46.6145 46.446 46.0547 47.0067 45.3635 47.0068H14.0364C13.3452 47.0068 12.7844 46.4461 12.7844 45.7549C12.7844 45.0637 13.3452 44.503 14.0364 44.5029H45.3635Z" fill="#272727"/>
</svg>
