<svg width="60" height="60" viewBox="0 0 60 60" fill="none" xmlns="http://www.w3.org/2000/svg">
<rect x="1.5" y="1.5" width="57" height="57" rx="10.5" stroke="#272727" stroke-width="3"/>
<path d="M30 26C30.5409 26.0001 30.9794 26.4386 30.9795 26.9795V37.0205H41.0205C41.5614 37.0206 41.9999 37.4591 42 38C42 38.541 41.5615 38.9794 41.0205 38.9795H30.9795V49.0205C30.9794 49.5614 30.5409 49.9999 30 50C29.459 50 29.0206 49.5615 29.0205 49.0205V38.9795H18.9795C18.4385 38.9794 18 38.541 18 38C18.0001 37.4591 18.4386 37.0206 18.9795 37.0205H29.0205V26.9795C29.0206 26.4385 29.459 26 30 26Z" fill="#272727"/>
<path d="M49.1323 9.00586C51.5096 9.12681 53.4009 11.0927 53.4009 13.5L53.395 13.7314C53.2785 16.0322 51.4329 17.8771 49.1323 17.9941L48.9009 18H9.50049L9.26904 17.9941C6.89132 17.8737 4.99951 15.9077 4.99951 13.5C4.99951 11.0923 6.89132 9.12632 9.26904 9.00586L9.50049 9H48.9009L49.1323 9.00586ZM9.50049 10C7.56749 10 6.00049 11.567 6.00049 13.5C6.00049 15.433 7.56749 17 9.50049 17H48.9009C50.8334 16.9995 52.4009 15.4327 52.4009 13.5C52.4009 11.5673 50.8334 10.0005 48.9009 10H9.50049ZM48.27 12C49.0984 12 49.7699 12.6716 49.77 13.5C49.77 14.3284 49.0984 15 48.27 15H10.1304C9.30194 15 8.63037 14.3284 8.63037 13.5C8.63045 12.6716 9.30199 12 10.1304 12H48.27Z" fill="#272727"/>
</svg>
