<svg width="60" height="60" viewBox="0 0 60 60" fill="none" xmlns="http://www.w3.org/2000/svg">
<rect x="1.5" y="1.5" width="57" height="57" rx="14.5" stroke="#272727" stroke-width="3"/>
<path d="M52.0233 49.632C52.1939 50.0587 52.2793 50.3787 52.2793 50.592C52.2793 50.976 52.1299 51.3173 51.8313 51.616C51.5753 51.872 51.2553 52 50.8713 52H42.8073C42.0819 52 41.5059 51.8507 41.0793 51.552C40.6953 51.2107 40.4393 50.8267 40.3113 50.4L38.5193 45.088H21.4953L19.7033 50.4C19.5753 50.8267 19.2979 51.2107 18.8713 51.552C18.4873 51.8507 17.9326 52 17.2073 52H9.14325C8.75925 52 8.41792 51.872 8.11925 51.616C7.86325 51.3173 7.73525 50.976 7.73525 50.592C7.73525 50.3787 7.82058 50.0587 7.99125 49.632L21.9433 9.312C22.1566 8.71466 22.4979 8.224 22.9673 7.84C23.4366 7.41333 24.0553 7.2 24.8233 7.2H35.1913C35.9593 7.2 36.5779 7.41333 37.0473 7.84C37.5166 8.224 37.8579 8.71466 38.0713 9.312L52.0233 49.632ZM35.1913 35.168L30.0073 19.808L24.8233 35.168H35.1913Z" fill="#272727"/>
</svg>
