<svg width="60" height="60" viewBox="0 0 60 60" fill="none" xmlns="http://www.w3.org/2000/svg">
<rect x="1.5" y="1.5" width="57" height="57" rx="14.5" stroke="#272727" stroke-width="3"/>
<path d="M18.5844 40.836L13.9444 48.55C13.6738 48.9753 13.3451 49.3233 12.9584 49.594C12.5718 49.8647 12.0498 50 11.3924 50H8.78242C8.47309 50 8.22176 49.9033 8.02842 49.71C7.83509 49.478 7.73842 49.2267 7.73842 48.956C7.73842 48.7627 7.79642 48.55 7.91242 48.318L30.1264 11.314C30.8998 10.038 31.9051 9.4 33.1424 9.4H36.8544C38.0531 9.4 38.7878 10.038 39.0584 11.314L45.4384 47.912C45.4771 48.0667 45.4964 48.26 45.4964 48.492C45.4964 48.956 45.3611 49.3233 45.0904 49.594C44.8584 49.8647 44.4911 50 43.9884 50H42.0744C40.9531 50 40.2958 49.5167 40.1024 48.55L38.7104 40.836H18.5844ZM37.7824 35.616L34.1864 14.91L21.7164 35.616H37.7824Z" fill="#272727"/>
</svg>
