<svg width="60" height="60" viewBox="0 0 60 60" fill="none" xmlns="http://www.w3.org/2000/svg">
<rect x="1.72095" y="1.5" width="56.7791" height="56.0164" rx="14.5" stroke="#272727" stroke-width="3"/>
<rect x="8.9668" y="47.2131" width="42.8417" height="1.96721" rx="0.983607" fill="#272727"/>
<path d="M22.0666 38.8736L19.7266 44.8586C19.4566 45.6086 18.8716 45.9836 17.9716 45.9836H16.3066C16.0366 45.9836 15.7966 45.8936 15.5866 45.7136C15.4066 45.5036 15.3166 45.2636 15.3166 44.9936C15.3166 44.8436 15.3766 44.6336 15.4966 44.3636L26.5216 15.9686C26.9116 14.9786 27.5866 14.4836 28.5466 14.4836H31.2466C32.2066 14.4836 32.8816 14.9786 33.2716 15.9686L44.2516 44.3636C44.3716 44.6336 44.4316 44.8436 44.4316 44.9936C44.4316 45.2636 44.3266 45.5036 44.1166 45.7136C43.9366 45.8936 43.7116 45.9836 43.4416 45.9836H41.7766C40.8766 45.9836 40.2916 45.6086 40.0216 44.8586L37.6816 38.8736H22.0666ZM36.1066 34.8236L29.8966 18.7586L23.6416 34.8236H36.1066Z" fill="#272727"/>
</svg>
